<svg width="109" height="109" viewBox="0 0 109 109" fill="none" xmlns="http://www.w3.org/2000/svg">
<mask id="path-1-inside-1_1_243575" fill="white">
<path d="M54.5 0C68.2141 1.63539e-07 81.4241 5.17029 91.4947 14.4794C101.565 23.7886 107.756 36.5522 108.832 50.224C109.908 63.8958 105.79 77.4708 97.2997 88.2407C88.8094 99.0106 76.5709 106.184 63.0256 108.329C49.4804 110.474 35.6242 107.434 24.2214 99.815C12.8185 92.1959 4.70728 80.5579 1.50582 67.2227C-1.69565 53.8875 0.248 39.8355 6.94902 27.87C13.65 15.9046 24.6158 6.90524 37.6587 2.66738L42.6397 17.9973C33.4543 20.9818 25.7318 27.3195 21.0126 35.7461C16.2935 44.1727 14.9247 54.0686 17.1793 63.4598C19.4339 72.851 25.1462 81.047 33.1765 86.4127C41.2069 91.7785 50.965 93.9195 60.5041 92.4086C70.0432 90.8978 78.6621 85.8462 84.6414 78.2616C90.6206 70.677 93.5206 61.1169 92.7629 51.4887C92.0051 41.8604 87.6453 32.8717 80.5532 26.3159C73.4611 19.76 64.158 16.1188 54.5 16.1188L54.5 0Z"/>
</mask>
<path d="M54.5 0C68.2141 1.63539e-07 81.4241 5.17029 91.4947 14.4794C101.565 23.7886 107.756 36.5522 108.832 50.224C109.908 63.8958 105.79 77.4708 97.2997 88.2407C88.8094 99.0106 76.5709 106.184 63.0256 108.329C49.4804 110.474 35.6242 107.434 24.2214 99.815C12.8185 92.1959 4.70728 80.5579 1.50582 67.2227C-1.69565 53.8875 0.248 39.8355 6.94902 27.87C13.65 15.9046 24.6158 6.90524 37.6587 2.66738L42.6397 17.9973C33.4543 20.9818 25.7318 27.3195 21.0126 35.7461C16.2935 44.1727 14.9247 54.0686 17.1793 63.4598C19.4339 72.851 25.1462 81.047 33.1765 86.4127C41.2069 91.7785 50.965 93.9195 60.5041 92.4086C70.0432 90.8978 78.6621 85.8462 84.6414 78.2616C90.6206 70.677 93.5206 61.1169 92.7629 51.4887C92.0051 41.8604 87.6453 32.8717 80.5532 26.3159C73.4611 19.76 64.158 16.1188 54.5 16.1188L54.5 0Z" fill="white"/>
<path d="M54.5 0C68.2141 1.63539e-07 81.4241 5.17029 91.4947 14.4794C101.565 23.7886 107.756 36.5522 108.832 50.224C109.908 63.8958 105.79 77.4708 97.2997 88.2407C88.8094 99.0106 76.5709 106.184 63.0256 108.329C49.4804 110.474 35.6242 107.434 24.2214 99.815C12.8185 92.1959 4.70728 80.5579 1.50582 67.2227C-1.69565 53.8875 0.248 39.8355 6.94902 27.87C13.65 15.9046 24.6158 6.90524 37.6587 2.66738L42.6397 17.9973C33.4543 20.9818 25.7318 27.3195 21.0126 35.7461C16.2935 44.1727 14.9247 54.0686 17.1793 63.4598C19.4339 72.851 25.1462 81.047 33.1765 86.4127C41.2069 91.7785 50.965 93.9195 60.5041 92.4086C70.0432 90.8978 78.6621 85.8462 84.6414 78.2616C90.6206 70.677 93.5206 61.1169 92.7629 51.4887C92.0051 41.8604 87.6453 32.8717 80.5532 26.3159C73.4611 19.76 64.158 16.1188 54.5 16.1188L54.5 0Z" stroke="#0DAA41" stroke-width="32" mask="url(#path-1-inside-1_1_243575)"/>
<path d="M54.5 0C68.2141 1.63539e-07 81.4241 5.17029 91.4947 14.4794C101.565 23.7886 107.756 36.5522 108.832 50.224C109.908 63.8958 105.79 77.4708 97.2997 88.2407C88.8094 99.0106 76.5709 106.184 63.0256 108.329C49.4804 110.474 35.6242 107.434 24.2214 99.815C12.8185 92.1959 4.70728 80.5579 1.50582 67.2227C-1.69565 53.8875 0.248 39.8355 6.94902 27.87C13.65 15.9046 24.6158 6.90524 37.6587 2.66738L42.6397 17.9973C33.4543 20.9818 25.7318 27.3195 21.0126 35.7461C16.2935 44.1727 14.9247 54.0686 17.1793 63.4598C19.4339 72.851 25.1462 81.047 33.1765 86.4127C41.2069 91.7785 50.965 93.9195 60.5041 92.4086C70.0432 90.8978 78.6621 85.8462 84.6414 78.2616C90.6206 70.677 93.5206 61.1169 92.7629 51.4887C92.0051 41.8604 87.6453 32.8717 80.5532 26.3159C73.4611 19.76 64.158 16.1188 54.5 16.1188L54.5 0Z" stroke="#0DAA41" stroke-width="32" mask="url(#path-1-inside-1_1_243575)"/>
</svg>
